<svg width="24" height="24" viewBox="0 0 24 24" fill="none" xmlns="http://www.w3.org/2000/svg">
<circle cx="12" cy="12" r="10" fill="#4285F4"/>
<circle cx="12" cy="12" r="4" fill="white"/>
<path d="M12 2C13.3132 2 14.6136 2.25866 15.8268 2.76121C17.0401 3.26375 18.1425 4.00035 19.0711 4.92894C19.9997 5.85752 20.7362 6.95991 21.2388 8.17317C21.7413 9.38643 22 10.6868 22 12H12V2Z" fill="#EA4335"/>
<path d="M12 22C10.6868 22 9.38642 21.7413 8.17317 21.2388C6.95991 20.7362 5.85752 19.9997 4.92893 19.0711C4.00035 18.1425 3.26375 17.0401 2.7612 15.8268C2.25866 14.6136 2 13.3132 2 12H12V22Z" fill="#34A853"/>
<path d="M22 12C22 13.3132 21.7413 14.6136 21.2388 15.8268C20.7362 17.0401 19.9997 18.1425 19.0711 19.0711C18.1425 19.9997 17.0401 20.7362 15.8268 21.2388C14.6136 21.7413 13.3132 22 12 22V12H22Z" fill="#FBBC04"/>
</svg>